<svg xmlns="http://www.w3.org/2000/svg" width="260" height="260" viewBox="0 0 260 260">
  <g fill="none" stroke="#7C8CFF" stroke-width="1" opacity="0.14">
    <path d="M0 40 H80 V0" />
    <path d="M80 40 V110 H180" />
    <path d="M180 110 V0" />
    <path d="M180 150 H260" />
    <path d="M0 160 H40 V260" />
    <path d="M40 200 H130 V260" />
    <path d="M130 200 V150 H220 V260" />
    <path d="M220 150 V90 H260" />
    <path d="M0 220 H10" />
  </g>
  <g fill="#A3AFFF" opacity="0.22">
    <circle cx="80" cy="40" r="3" />
    <circle cx="180" cy="110" r="3" />
    <circle cx="180" cy="150" r="2.4" />
    <circle cx="40" cy="160" r="2.4" />
    <circle cx="130" cy="200" r="3" />
    <circle cx="220" cy="150" r="2.4" />
    <circle cx="220" cy="90" r="2.4" />
    <circle cx="130" cy="150" r="2.4" />
  </g>
</svg>
